<svg xmlns="http://www.w3.org/2000/svg" width="250.7" height="1090" viewBox="0 0 250.7 1090">
  <title>i</title>
  <g id="Complete">
    <g id="F-File">
      <g id="Remove">
        <g>
          <path id="File" d="M148,738H136a2,2,0,0,1-2-2V720a2,2,0,0,1,2-2h7.1a2,2,0,0,1,1.5.6l4.9,5.2a2,2,0,0,1,.5,1.4V736A2,2,0,0,1,148,738Z" transform="translate(-64 -2)" fill="none" stroke="#000" stroke-linecap="round" stroke-linejoin="round" stroke-width="2"/>
          <line x1="75" y1="730.5" x2="81" y2="730.5" fill="none" stroke="#000" stroke-linecap="round" stroke-linejoin="round" stroke-width="2"/>
        </g>
      </g>
      <g id="Add">
        <path id="File-2" data-name="File" d="M115,738H103a2,2,0,0,1-2-2V720a2,2,0,0,1,2-2h7.1a2,2,0,0,1,1.5.6l4.9,5.2a2,2,0,0,1,.5,1.4V736A2,2,0,0,1,115,738Z" transform="translate(-64 -2)" fill="none" stroke="#000" stroke-linecap="round" stroke-linejoin="round" stroke-width="2"/>
        <line x1="45" y1="731" x2="45" y2="725" fill="none" stroke="#000" stroke-linecap="round" stroke-linejoin="round" stroke-width="2"/>
        <line x1="42" y1="728" x2="48" y2="728" fill="none" stroke="#000" stroke-linecap="round" stroke-linejoin="round" stroke-width="2"/>
      </g>
      <g id="Text">
        <g>
          <path id="File-3" data-name="File" d="M82,738H70a2,2,0,0,1-2-2V720a2,2,0,0,1,2-2h7.1a2,2,0,0,1,1.5.6l4.9,5.2a2,2,0,0,1,.5,1.4V736A2,2,0,0,1,82,738Z" transform="translate(-64 -2)" fill="none" stroke="#000" stroke-linecap="round" stroke-linejoin="round" stroke-width="2"/>
          <line x1="7.9" y1="731.5" x2="16.1" y2="731.5" fill="none" stroke="#000" stroke-linecap="round" stroke-linejoin="round" stroke-width="2"/>
          <line x1="7.9" y1="727.5" x2="16.1" y2="727.5" fill="none" stroke="#000" stroke-linecap="round" stroke-linejoin="round" stroke-width="2"/>
          <line x1="8" y1="723.5" x2="13" y2="723.5" fill="none" stroke="#000" stroke-linecap="round" stroke-linejoin="round" stroke-width="2"/>
        </g>
      </g>
    </g>
    <g id="F-Chevron">
      <polyline id="Down" points="38 658.5 45 665.5 52 658.5" fill="none" stroke="#000" stroke-linecap="round" stroke-linejoin="round" stroke-width="2"/>
      <polyline id="Up" points="5 665.5 12 658.5 19 665.5" fill="none" stroke="#000" stroke-linecap="round" stroke-linejoin="round" stroke-width="2"/>
      <polyline id="Left" points="114.5 655 107.5 662 114.5 669" fill="none" stroke="#000" stroke-linecap="round" stroke-linejoin="round" stroke-width="2"/>
      <polyline id="Right" points="74.5 655 81.5 662 74.5 669" fill="none" stroke="#000" stroke-linecap="round" stroke-linejoin="round" stroke-width="2"/>
    </g>
    <g id="F-Push">
      <g id="Left-2" data-name="Left">
        <g>
          <polyline id="Down-2" data-name="Down" points="116.9 687 109.9 694 116.9 701" fill="none" stroke="#000" stroke-linecap="round" stroke-linejoin="round" stroke-width="2"/>
          <line x1="105.1" y1="687" x2="105.1" y2="701" fill="none" stroke="#000" stroke-linecap="round" stroke-linejoin="round" stroke-width="2"/>
        </g>
      </g>
      <g id="Right-2" data-name="Right">
        <g>
          <polyline id="Down-3" data-name="Down" points="72.1 701 79.1 694 72.1 687" fill="none" stroke="#000" stroke-linecap="round" stroke-linejoin="round" stroke-width="2"/>
          <line x1="83.9" y1="701" x2="83.9" y2="687" fill="none" stroke="#000" stroke-linecap="round" stroke-linejoin="round" stroke-width="2"/>
        </g>
      </g>
      <g id="Down-4" data-name="Down">
        <g>
          <polyline id="Down-5" data-name="Down" points="38 688.1 45 695.1 52 688.1" fill="none" stroke="#000" stroke-linecap="round" stroke-linejoin="round" stroke-width="2"/>
          <line x1="38" y1="699.9" x2="52" y2="699.9" fill="none" stroke="#000" stroke-linecap="round" stroke-linejoin="round" stroke-width="2"/>
        </g>
      </g>
      <g id="Up-2" data-name="Up">
        <g>
          <polyline id="Down-6" data-name="Down" points="19 699.9 12 692.9 5 699.9" fill="none" stroke="#000" stroke-linecap="round" stroke-linejoin="round" stroke-width="2"/>
          <line x1="19" y1="688.1" x2="5" y2="688.1" fill="none" stroke="#000" stroke-linecap="round" stroke-linejoin="round" stroke-width="2"/>
        </g>
      </g>
    </g>
    <g id="Code">
      <g>
        <polyline id="Right-3" data-name="Right" points="15.5 753 20.5 758 15.5 763" fill="none" stroke="#000" stroke-linecap="round" stroke-linejoin="round" stroke-width="2"/>
        <polyline id="Left-3" data-name="Left" points="8.5 753 3.5 758 8.5 763" fill="none" stroke="#000" stroke-linecap="round" stroke-linejoin="round" stroke-width="2"/>
      </g>
    </g>
    <g id="Triangle">
      <path id="Triangle-2" data-name="Triangle" d="M74.2,783.1l-8,16A2,2,0,0,0,68,802H84a2,2,0,0,0,1.8-2.9l-8-16A2,2,0,0,0,74.2,783.1Z" transform="translate(-64 -2)" fill="none" stroke="#000" stroke-linecap="round" stroke-linejoin="round" stroke-width="2"/>
    </g>
    <g id="Circle">
      <circle id="Circle-2" data-name="Circle" cx="45" cy="790" r="10" fill="none" stroke="#000" stroke-linecap="round" stroke-linejoin="round" stroke-width="2"/>
    </g>
    <g id="Clock">
      <g>
        <polyline points="11.9 849.9 11.9 855.9 12 856 14.1 858.1" fill="none" stroke="#000" stroke-linecap="round" stroke-linejoin="round" stroke-width="2"/>
        <circle id="Circle-3" data-name="Circle" cx="12" cy="856" r="10" fill="none" stroke="#000" stroke-linecap="round" stroke-linejoin="round" stroke-width="2"/>
      </g>
    </g>
    <g id="stopwatch">
      <g>
        <line x1="12" y1="821.8" x2="12" y2="825" fill="none" stroke="#000" stroke-linecap="round" stroke-linejoin="round" stroke-width="2"/>
        <circle id="Circle-4" data-name="Circle" cx="12" cy="825.5" r="7.9" fill="none" stroke="#000" stroke-linecap="round" stroke-linejoin="round" stroke-width="2"/>
        <polyline points="12 816.5 12 812.5 9 812.5 15 812.5" fill="none" stroke="#000" stroke-linecap="round" stroke-linejoin="round" stroke-width="2"/>
      </g>
    </g>
    <g id="Disc">
      <g>
        <circle id="Circle-5" data-name="Circle" cx="12" cy="888" r="10" fill="none" stroke="#000" stroke-linecap="round" stroke-linejoin="round" stroke-width="2"/>
        <circle id="Circle-6" data-name="Circle" cx="12" cy="888" r="3.5" fill="none" stroke="#000" stroke-linecap="round" stroke-linejoin="round" stroke-width="2"/>
      </g>
    </g>
    <g id="Square">
      <rect id="Rectangle" x="68" y="780" width="20" height="20" rx="2" ry="2" fill="none" stroke="#000" stroke-linecap="round" stroke-linejoin="round" stroke-width="2"/>
    </g>
    <g id="F-More">
      <path id="Horizontal" d="M72,636a2,2,0,1,1-2-2A2,2,0,0,1,72,636Zm10-2a2,2,0,1,0,2,2A2,2,0,0,0,82,634Zm-6,0a2,2,0,1,0,2,2A2,2,0,0,0,76,634Z" transform="translate(-64 -2)"/>
      <path id="Vertical" d="M109,640a2,2,0,1,1-2,2A2,2,0,0,1,109,640Zm-2-10a2,2,0,1,0,2-2A2,2,0,0,0,107,630Zm0,6a2,2,0,1,0,2-2A2,2,0,0,0,107,636Z" transform="translate(-64 -2)"/>
    </g>
    <g id="alert-square">
      <g>
        <line x1="78" y1="600" x2="78" y2="604" fill="none" stroke="#000" stroke-linecap="round" stroke-linejoin="round" stroke-width="2"/>
        <rect id="_--Rectangle" data-name="--Rectangle" x="68" y="594" width="20" height="20" rx="2" ry="2" fill="none" stroke="#000" stroke-linecap="round" stroke-linejoin="round" stroke-width="2"/>
        <line x1="78" y1="608" x2="78" y2="608" fill="none" stroke="#000" stroke-linecap="round" stroke-linejoin="round" stroke-width="2"/>
      </g>
    </g>
    <g id="alert-triangle">
      <g>
        <path id="_--Triangle" data-name="--Triangle" d="M107.2,597.2l-8,15.9a2,2,0,0,0,1.8,2.9h16a2,2,0,0,0,1.8-2.9l-8-15.9A2,2,0,0,0,107.2,597.2Z" transform="translate(-64 -2)" fill="none" stroke="#000" stroke-linecap="round" stroke-linejoin="round" stroke-width="2"/>
        <line x1="45" y1="601" x2="45" y2="605" fill="none" stroke="#000" stroke-linecap="round" stroke-linejoin="round" stroke-width="2"/>
        <line x1="45" y1="609" x2="45" y2="609" fill="none" stroke="#000" stroke-linecap="round" stroke-linejoin="round" stroke-width="2"/>
      </g>
    </g>
    <g id="alert-circle">
      <g>
        <line x1="12" y1="600" x2="12" y2="604" fill="none" stroke="#000" stroke-linecap="round" stroke-linejoin="round" stroke-width="2"/>
        <line x1="12" y1="608" x2="12" y2="608" fill="none" stroke="#000" stroke-linecap="round" stroke-linejoin="round" stroke-width="2"/>
        <circle id="_--Circle" data-name="--Circle" cx="12" cy="604" r="10" fill="none" stroke="#000" stroke-linecap="round" stroke-linejoin="round" stroke-width="2"/>
      </g>
    </g>
    <g id="info-square">
      <g>
        <rect id="_--Rectangle-2" data-name="--Rectangle" x="35" y="564" width="20" height="20" rx="2" ry="2" fill="none" stroke="#000" stroke-linecap="round" stroke-linejoin="round" stroke-width="2"/>
        <line x1="45" y1="574" x2="45" y2="578" fill="none" stroke="#000" stroke-linecap="round" stroke-linejoin="round" stroke-width="2"/>
        <line x1="45" y1="570" x2="45" y2="570" fill="none" stroke="#000" stroke-linecap="round" stroke-linejoin="round" stroke-width="2"/>
      </g>
    </g>
    <g id="info-circle">
      <g>
        <circle id="_--Circle-2" data-name="--Circle" cx="12" cy="574" r="10" fill="none" stroke="#000" stroke-linecap="round" stroke-linejoin="round" stroke-width="2"/>
        <line x1="12" y1="574" x2="12" y2="578" fill="none" stroke="#000" stroke-linecap="round" stroke-linejoin="round" stroke-width="2"/>
        <line x1="12" y1="570" x2="12" y2="570" fill="none" stroke="#000" stroke-linecap="round" stroke-linejoin="round" stroke-width="2"/>
      </g>
    </g>
    <g id="x-circle">
      <g>
        <circle id="_--Circle-3" data-name="--Circle" cx="12" cy="544" r="10" fill="none" stroke="#000" stroke-linecap="round" stroke-linejoin="round" stroke-width="2"/>
        <line x1="14.5" y1="541.5" x2="9.5" y2="546.5" fill="none" stroke="#000" stroke-linecap="round" stroke-linejoin="round" stroke-width="2"/>
        <line x1="14.5" y1="546.5" x2="9.5" y2="541.5" fill="none" stroke="#000" stroke-linecap="round" stroke-linejoin="round" stroke-width="2"/>
      </g>
    </g>
    <g id="x-square">
      <g>
        <rect id="_--Rectangle-3" data-name="--Rectangle" x="35" y="534" width="20" height="20" rx="2" ry="2" fill="none" stroke="#000" stroke-linecap="round" stroke-linejoin="round" stroke-width="2"/>
        <line x1="47.5" y1="541.5" x2="42.5" y2="546.5" fill="none" stroke="#000" stroke-linecap="round" stroke-linejoin="round" stroke-width="2"/>
        <line x1="47.5" y1="546.5" x2="42.5" y2="541.5" fill="none" stroke="#000" stroke-linecap="round" stroke-linejoin="round" stroke-width="2"/>
      </g>
    </g>
    <g id="add-square">
      <g>
        <rect id="_--Rectangle-4" data-name="--Rectangle" x="35" y="504" width="20" height="20" rx="2" ry="2" fill="none" stroke="#000" stroke-linecap="round" stroke-linejoin="round" stroke-width="2"/>
        <line x1="48.5" y1="514" x2="41.5" y2="514" fill="none" stroke="#000" stroke-linecap="round" stroke-linejoin="round" stroke-width="2"/>
        <line x1="45" y1="517.5" x2="45" y2="510.5" fill="none" stroke="#000" stroke-linecap="round" stroke-linejoin="round" stroke-width="2"/>
      </g>
    </g>
    <g id="add-circle">
      <g>
        <circle id="_--Circle-4" data-name="--Circle" cx="12" cy="514" r="10" fill="none" stroke="#000" stroke-linecap="round" stroke-linejoin="round" stroke-width="2"/>
        <line x1="15.5" y1="514" x2="8.5" y2="514" fill="none" stroke="#000" stroke-linecap="round" stroke-linejoin="round" stroke-width="2"/>
        <line x1="12" y1="517.5" x2="12" y2="510.5" fill="none" stroke="#000" stroke-linecap="round" stroke-linejoin="round" stroke-width="2"/>
      </g>
    </g>
    <g id="remove-square">
      <g>
        <rect id="_--Rectangle-5" data-name="--Rectangle" x="35" y="474" width="20" height="20" rx="2" ry="2" fill="none" stroke="#000" stroke-linecap="round" stroke-linejoin="round" stroke-width="2"/>
        <line x1="48.5" y1="484" x2="41.5" y2="484" fill="none" stroke="#000" stroke-linecap="round" stroke-linejoin="round" stroke-width="2"/>
      </g>
    </g>
    <g id="remove-circle">
      <g>
        <circle id="_--Circle-5" data-name="--Circle" cx="12" cy="484" r="10" fill="none" stroke="#000" stroke-linecap="round" stroke-linejoin="round" stroke-width="2"/>
        <line x1="15.5" y1="484" x2="8.5" y2="484" fill="none" stroke="#000" stroke-linecap="round" stroke-linejoin="round" stroke-width="2"/>
      </g>
    </g>
    <g id="arrow-down-right">
      <g>
        <polyline id="Right-4" data-name="Right" points="209.6 460.7 216.7 460.7 216.7 453.6" fill="none" stroke="#000" stroke-linecap="round" stroke-linejoin="round" stroke-width="2"/>
        <line x1="203.3" y1="447.3" x2="215.1" y2="459.1" fill="none" stroke="#000" stroke-linecap="round" stroke-linejoin="round" stroke-width="2"/>
      </g>
    </g>
    <g id="arrow-down-left">
      <g>
        <polyline id="Right-5" data-name="Right" points="236.3 453.6 236.3 460.7 243.4 460.7" fill="none" stroke="#000" stroke-linecap="round" stroke-linejoin="round" stroke-width="2"/>
        <line x1="249.7" y1="447.3" x2="237.9" y2="459.1" fill="none" stroke="#000" stroke-linecap="round" stroke-linejoin="round" stroke-width="2"/>
      </g>
    </g>
    <g id="arrow-up-left">
      <g>
        <polyline id="Right-6" data-name="Right" points="170.3 454.4 170.3 447.3 177.4 447.3" fill="none" stroke="#000" stroke-linecap="round" stroke-linejoin="round" stroke-width="2"/>
        <line x1="183.7" y1="460.7" x2="171.9" y2="448.9" fill="none" stroke="#000" stroke-linecap="round" stroke-linejoin="round" stroke-width="2"/>
      </g>
    </g>
    <g id="arrow-up-right">
      <g>
        <polyline id="Right-7" data-name="Right" points="150.7 454.4 150.7 447.3 143.6 447.3" fill="none" stroke="#000" stroke-linecap="round" stroke-linejoin="round" stroke-width="2"/>
        <line x1="137.3" y1="460.7" x2="149.1" y2="448.9" fill="none" stroke="#000" stroke-linecap="round" stroke-linejoin="round" stroke-width="2"/>
      </g>
    </g>
    <g id="expand">
      <g>
        <polyline id="Right-8" data-name="Right" points="69 208.3 69 212 72.7 212" fill="none" stroke="#000" stroke-linecap="round" stroke-linejoin="round" stroke-width="2"/>
        <line x1="76" y1="205" x2="69.8" y2="211.2" fill="none" stroke="#000" stroke-linecap="round" stroke-linejoin="round" stroke-width="2"/>
        <line x1="80" y1="201" x2="86.2" y2="194.8" fill="none" stroke="#000" stroke-linecap="round" stroke-linejoin="round" stroke-width="2"/>
        <polyline id="Right-9" data-name="Right" points="87 197.7 87 194 83.3 194" fill="none" stroke="#000" stroke-linecap="round" stroke-linejoin="round" stroke-width="2"/>
      </g>
    </g>
    <g id="shrink">
      <g>
        <polyline id="Right-10" data-name="Right" points="109 208.7 109 205 105.3 205" fill="none" stroke="#000" stroke-linecap="round" stroke-linejoin="round" stroke-width="2"/>
        <line x1="102" y1="212" x2="108.2" y2="205.8" fill="none" stroke="#000" stroke-linecap="round" stroke-linejoin="round" stroke-width="2"/>
        <polyline id="Right-11" data-name="Right" points="113 197.3 113 201 116.7 201" fill="none" stroke="#000" stroke-linecap="round" stroke-linejoin="round" stroke-width="2"/>
        <line x1="120" y1="194" x2="113.8" y2="200.2" fill="none" stroke="#000" stroke-linecap="round" stroke-linejoin="round" stroke-width="2"/>
      </g>
    </g>
    <g id="arrow-left">
      <g>
        <polyline id="Right-12" data-name="Right" points="106.6 449 101.5 454 106.6 459" fill="none" stroke="#000" stroke-linecap="round" stroke-linejoin="round" stroke-width="2"/>
        <line x1="120.5" y1="454" x2="103.8" y2="454" fill="none" stroke="#000" stroke-linecap="round" stroke-linejoin="round" stroke-width="2"/>
      </g>
    </g>
    <g id="arrow-right">
      <g>
        <polyline id="Right-13" data-name="Right" points="82.4 449 87.5 454 82.4 459" fill="none" stroke="#000" stroke-linecap="round" stroke-linejoin="round" stroke-width="2"/>
        <line x1="68.5" y1="454" x2="85.2" y2="454" fill="none" stroke="#000" stroke-linecap="round" stroke-linejoin="round" stroke-width="2"/>
      </g>
    </g>
    <g id="arrow-down">
      <g>
        <polyline id="Right-14" data-name="Right" points="40 458.4 45 463.5 50 458.4" fill="none" stroke="#000" stroke-linecap="round" stroke-linejoin="round" stroke-width="2"/>
        <line x1="45" y1="444.5" x2="45" y2="461.2" fill="none" stroke="#000" stroke-linecap="round" stroke-linejoin="round" stroke-width="2"/>
      </g>
    </g>
    <g id="arrow-up">
      <g>
        <polyline id="Right-15" data-name="Right" points="7 449.5 12 444.5 17 449.5" fill="none" stroke="#000" stroke-linecap="round" stroke-linejoin="round" stroke-width="2"/>
        <line x1="12" y1="463.3" x2="12" y2="446.8" fill="none" stroke="#000" stroke-linecap="round" stroke-linejoin="round" stroke-width="2"/>
      </g>
    </g>
    <g id="search">
      <g>
        <circle cx="10.1" cy="391.1" r="8" fill="none" stroke="#000" stroke-linecap="round" stroke-linejoin="round" stroke-width="2"/>
        <line x1="21.9" y1="402.9" x2="16.3" y2="397.3" fill="none" stroke="#000" stroke-linecap="round" stroke-linejoin="round" stroke-width="2"/>
      </g>
    </g>
    <g id="zoom-in">
      <g>
        <circle cx="10" cy="422" r="8" fill="none" stroke="#000" stroke-linecap="round" stroke-linejoin="round" stroke-width="2"/>
        <line x1="21.8" y1="433.8" x2="16.2" y2="428.2" fill="none" stroke="#000" stroke-linecap="round" stroke-linejoin="round" stroke-width="2"/>
        <line x1="13" y1="422" x2="7" y2="422" fill="none" stroke="#000" stroke-linecap="round" stroke-linejoin="round" stroke-width="2"/>
        <line x1="10" y1="425" x2="10" y2="419" fill="none" stroke="#000" stroke-linecap="round" stroke-linejoin="round" stroke-width="2"/>
      </g>
    </g>
    <g id="zoom-out">
      <g>
        <circle cx="43.1" cy="422.1" r="8" fill="none" stroke="#000" stroke-linecap="round" stroke-linejoin="round" stroke-width="2"/>
        <line x1="54.9" y1="433.9" x2="49.3" y2="428.3" fill="none" stroke="#000" stroke-linecap="round" stroke-linejoin="round" stroke-width="2"/>
        <line x1="46.1" y1="422.1" x2="40.1" y2="422.1" fill="none" stroke="#000" stroke-linecap="round" stroke-linejoin="round" stroke-width="2"/>
      </g>
    </g>
    <g id="user">
      <g>
        <path d="M84,341v-2a4,4,0,0,0-4-4H72a4,4,0,0,0-4,4v2" transform="translate(-64 -2)" fill="none" stroke="#000" stroke-linecap="round" stroke-linejoin="round" stroke-width="2"/>
        <circle cx="12" cy="325" r="4" fill="none" stroke="#000" stroke-linecap="round" stroke-linejoin="round" stroke-width="2"/>
        <path d="M68,341" transform="translate(-64 -2)" fill="none" stroke="#000" stroke-linecap="round" stroke-linejoin="round" stroke-width="2"/>
      </g>
    </g>
    <g id="user-add">
      <g>
        <path d="M81,373v-2a4,4,0,0,0-4-4H69a4,4,0,0,0-4,4v2" transform="translate(-64 -2)" fill="none" stroke="#000" stroke-linecap="round" stroke-linejoin="round" stroke-width="2"/>
        <circle cx="9" cy="357" r="4" fill="none" stroke="#000" stroke-linecap="round" stroke-linejoin="round" stroke-width="2"/>
        <path d="M65,373" transform="translate(-64 -2)" fill="none" stroke="#000" stroke-linecap="round" stroke-linejoin="round" stroke-width="2"/>
        <line x1="17" y1="361" x2="23" y2="361" fill="none" stroke="#000" stroke-linecap="round" stroke-linejoin="round" stroke-width="2"/>
        <line x1="20" y1="358" x2="20" y2="364" fill="none" stroke="#000" stroke-linecap="round" stroke-linejoin="round" stroke-width="2"/>
      </g>
    </g>
    <g id="user-remove">
      <g>
        <path d="M114,373v-2a4,4,0,0,0-4-4h-8a4,4,0,0,0-4,4v2" transform="translate(-64 -2)" fill="none" stroke="#000" stroke-linecap="round" stroke-linejoin="round" stroke-width="2"/>
        <circle cx="42" cy="357" r="4" fill="none" stroke="#000" stroke-linecap="round" stroke-linejoin="round" stroke-width="2"/>
        <path d="M98,373" transform="translate(-64 -2)" fill="none" stroke="#000" stroke-linecap="round" stroke-linejoin="round" stroke-width="2"/>
        <line x1="50" y1="361" x2="56" y2="361" fill="none" stroke="#000" stroke-linecap="round" stroke-linejoin="round" stroke-width="2"/>
      </g>
    </g>
    <g id="user-x">
      <g>
        <path d="M147,373v-2a4,4,0,0,0-4-4h-8a4,4,0,0,0-4,4v2" transform="translate(-64 -2)" fill="none" stroke="#000" stroke-linecap="round" stroke-linejoin="round" stroke-width="2"/>
        <circle cx="75" cy="357" r="4" fill="none" stroke="#000" stroke-linecap="round" stroke-linejoin="round" stroke-width="2"/>
        <path d="M131,373" transform="translate(-64 -2)" fill="none" stroke="#000" stroke-linecap="round" stroke-linejoin="round" stroke-width="2"/>
        <line x1="83.9" y1="363.1" x2="88.1" y2="358.9" fill="none" stroke="#000" stroke-linecap="round" stroke-linejoin="round" stroke-width="2"/>
        <line x1="83.9" y1="358.9" x2="88.1" y2="363.1" fill="none" stroke="#000" stroke-linecap="round" stroke-linejoin="round" stroke-width="2"/>
      </g>
    </g>
    <g id="user-tick">
      <g>
        <path d="M180,373v-2a4,4,0,0,0-4-4h-8a4,4,0,0,0-4,4v2" transform="translate(-64 -2)" fill="none" stroke="#000" stroke-linecap="round" stroke-linejoin="round" stroke-width="2"/>
        <circle cx="108" cy="357" r="4" fill="none" stroke="#000" stroke-linecap="round" stroke-linejoin="round" stroke-width="2"/>
        <polyline points="115 361 117 363 121.1 358.9" fill="none" stroke="#000" stroke-linecap="round" stroke-linejoin="round" stroke-width="2"/>
      </g>
    </g>
    <g id="sidebar-bottom">
      <g>
        <rect id="Square-2" data-name="Square" x="102" y="288" width="18" height="18" rx="2" ry="2" fill="none" stroke="#000" stroke-miterlimit="10" stroke-width="2"/>
        <line x1="120" y1="300" x2="102" y2="300" fill="none" stroke="#000" stroke-miterlimit="10" stroke-width="2"/>
      </g>
    </g>
    <g id="sidebar-top">
      <g>
        <rect id="Square-3" data-name="Square" x="69" y="288" width="18" height="18" rx="2" ry="2" fill="none" stroke="#000" stroke-miterlimit="10" stroke-width="2"/>
        <line x1="87" y1="294" x2="69" y2="294" fill="none" stroke="#000" stroke-miterlimit="10" stroke-width="2"/>
      </g>
    </g>
    <g id="sidebar-left">
      <g>
        <rect id="Square-4" data-name="Square" x="3" y="288" width="18" height="18" rx="2" ry="2" fill="none" stroke="#000" stroke-miterlimit="10" stroke-width="2"/>
        <line x1="9" y1="306" x2="9" y2="288" fill="none" stroke="#000" stroke-miterlimit="10" stroke-width="2"/>
      </g>
    </g>
    <g id="sidebar-right">
      <g>
        <rect id="Square-5" data-name="Square" x="36" y="288" width="18" height="18" rx="2" ry="2" fill="none" stroke="#000" stroke-miterlimit="10" stroke-width="2"/>
        <line x1="48" y1="306" x2="48" y2="288" fill="none" stroke="#000" stroke-miterlimit="10" stroke-width="2"/>
      </g>
    </g>
    <g id="tick">
      <polyline points="3.7 953.3 9.6 958 20.3 944" fill="none" stroke="#000" stroke-linecap="round" stroke-linejoin="round" stroke-width="2"/>
    </g>
    <g id="x">
      <g>
        <line x1="38" y1="943.8" x2="52" y2="958.2" fill="none" stroke="#000" stroke-linecap="round" stroke-linejoin="round" stroke-width="2"/>
        <line x1="52" y1="943.8" x2="38" y2="958.2" fill="none" stroke="#000" stroke-linecap="round" stroke-linejoin="round" stroke-width="2"/>
      </g>
    </g>
    <g id="add-2" data-name="add">
      <g>
        <line x1="77" y1="958" x2="77" y2="944" fill="none" stroke="#000" stroke-linecap="round" stroke-linejoin="round" stroke-width="2"/>
        <line x1="70" y1="951" x2="84" y2="951" fill="none" stroke="#000" stroke-linecap="round" stroke-linejoin="round" stroke-width="2"/>
      </g>
    </g>
    <g id="minus">
      <line x1="102" y1="951" x2="118" y2="951" fill="none" stroke="#000" stroke-linecap="round" stroke-linejoin="round" stroke-width="2"/>
    </g>
    <g id="lock">
      <g>
        <rect x="4" y="983" width="16" height="10" rx="2" ry="2" fill="none" stroke="#000" stroke-linecap="round" stroke-linejoin="round" stroke-width="2"/>
        <path d="M80.5,985v-3h0c0-2.8-.5-5-4.5-5s-4.5,2.2-4.5,5h0v3" transform="translate(-64 -2)" fill="none" stroke="#000" stroke-linecap="round" stroke-linejoin="round" stroke-width="2"/>
      </g>
    </g>
    <g id="unlock">
      <g>
        <rect x="37" y="983" width="16" height="10" rx="2" ry="2" fill="none" stroke="#000" stroke-linecap="round" stroke-linejoin="round" stroke-width="2"/>
        <path d="M113.5,985v-3h0c0-2.8-.5-5-4.5-5" transform="translate(-64 -2)" fill="none" stroke="#000" stroke-linecap="round" stroke-linejoin="round" stroke-width="2"/>
      </g>
    </g>
    <g id="mail">
      <g>
        <polyline points="4 1012 12 1017 20 1012" fill="none" stroke="#000" stroke-linecap="round" stroke-linejoin="round" stroke-width="2"/>
        <rect x="3" y="1010.5" width="18" height="12" rx="2" ry="2" fill="none" stroke="#000" stroke-linecap="round" stroke-linejoin="round" stroke-width="2"/>
      </g>
    </g>
    <g id="mail-read">
      <g>
        <polyline points="37 1011 45 1016 53 1011" fill="none" stroke="#000" stroke-linecap="round" stroke-linejoin="round" stroke-width="2"/>
        <polyline points="36 1010.5 45 1005.5 54 1010.5" fill="none" stroke="#000" stroke-linecap="round" stroke-linejoin="round" stroke-width="2"/>
        <path d="M118,1012.5v10a2,2,0,0,1-2,2H102a2,2,0,0,1-2-2v-10" transform="translate(-64 -2)" fill="none" stroke="#000" stroke-linecap="round" stroke-linejoin="round" stroke-width="2"/>
      </g>
    </g>
    <g id="align-justify">
      <g>
        <polygon points="20 271 4 271 4 271 20 271 20 271" fill="#fff" stroke="#000" stroke-linecap="round" stroke-linejoin="round" stroke-width="2"/>
        <polygon points="20 267 4 267 4 267 20 267 20 267" fill="#fff" stroke="#000" stroke-linecap="round" stroke-linejoin="round" stroke-width="2"/>
        <polygon points="20 263 4 263 4 263 20 263 20 263" fill="#fff" stroke="#000" stroke-linecap="round" stroke-linejoin="round" stroke-width="2"/>
        <polygon points="20 259 4 259 4 259 20 259 20 259" fill="#fff" stroke="#000" stroke-linecap="round" stroke-linejoin="round" stroke-width="2"/>
      </g>
    </g>
    <g id="align-center">
      <g>
        <polygon points="49.4 271 40.6 271 40.6 271 49.4 271 49.4 271" fill="#fff" stroke="#000" stroke-linecap="round" stroke-linejoin="round" stroke-width="2"/>
        <polygon points="53 267 37 267 37 267 53 267 53 267" fill="#fff" stroke="#000" stroke-linecap="round" stroke-linejoin="round" stroke-width="2"/>
        <polygon points="49.4 263 40.6 263 40.6 263 49.4 263 49.4 263" fill="#fff" stroke="#000" stroke-linecap="round" stroke-linejoin="round" stroke-width="2"/>
        <polygon points="53 259 37 259 37 259 53 259 53 259" fill="#fff" stroke="#000" stroke-linecap="round" stroke-linejoin="round" stroke-width="2"/>
      </g>
    </g>
    <g id="align-left">
      <g>
        <polygon points="78.9 271 70.1 271 70.1 271 78.9 271 78.9 271" fill="#fff" stroke="#000" stroke-linecap="round" stroke-linejoin="round" stroke-width="2"/>
        <polygon points="86 267 70 267 70 267 86 267 86 267" fill="#fff" stroke="#000" stroke-linecap="round" stroke-linejoin="round" stroke-width="2"/>
        <polygon points="78.9 263 70.1 263 70.1 263 78.9 263 78.9 263" fill="#fff" stroke="#000" stroke-linecap="round" stroke-linejoin="round" stroke-width="2"/>
        <polygon points="86 259 70 259 70 259 86 259 86 259" fill="#fff" stroke="#000" stroke-linecap="round" stroke-linejoin="round" stroke-width="2"/>
      </g>
    </g>
    <g id="align-right">
      <g>
        <polygon points="118.9 271 110.1 271 110.1 271 118.9 271 118.9 271" fill="#fff" stroke="#000" stroke-linecap="round" stroke-linejoin="round" stroke-width="2"/>
        <polygon points="119 267 103 267 103 267 119 267 119 267" fill="#fff" stroke="#000" stroke-linecap="round" stroke-linejoin="round" stroke-width="2"/>
        <polygon points="118.9 263 110.1 263 110.1 263 118.9 263 118.9 263" fill="#fff" stroke="#000" stroke-linecap="round" stroke-linejoin="round" stroke-width="2"/>
        <polygon points="119 259 103 259 103 259 119 259 119 259" fill="#fff" stroke="#000" stroke-linecap="round" stroke-linejoin="round" stroke-width="2"/>
      </g>
    </g>
    <g id="navigation-nw">
      <polyline points="69 225 78 243 81 237 87 234 69 225" fill="none" stroke="#000" stroke-linecap="round" stroke-linejoin="round" stroke-width="2"/>
    </g>
    <g id="navigation-ne">
      <polyline points="54 225 45 243 42 237 36 234 54 225" fill="none" stroke="#000" stroke-linecap="round" stroke-linejoin="round" stroke-width="2"/>
    </g>
    <g id="navigation">
      <polyline points="12 224.5 5.6 243.5 12 241.4 18.4 243.5 12 224.5" fill="none" stroke="#000" stroke-linecap="round" stroke-linejoin="round" stroke-width="2"/>
    </g>
    <g id="maximize">
      <g>
        <path d="M67,201v-3a2,2,0,0,1,2-2h3" transform="translate(-64 -2)" fill="none" stroke="#000" stroke-linecap="round" stroke-linejoin="round" stroke-width="2"/>
        <path d="M85,209v3a2,2,0,0,1-2,2H80" transform="translate(-64 -2)" fill="none" stroke="#000" stroke-linecap="round" stroke-linejoin="round" stroke-width="2"/>
        <path d="M67,209v3a2,2,0,0,0,2,2h3" transform="translate(-64 -2)" fill="none" stroke="#000" stroke-linecap="round" stroke-linejoin="round" stroke-width="2"/>
        <path d="M85,201v-3a2,2,0,0,0-2-2H80" transform="translate(-64 -2)" fill="none" stroke="#000" stroke-linecap="round" stroke-linejoin="round" stroke-width="2"/>
      </g>
    </g>
    <g id="minimize">
      <g>
        <path d="M105,196v3a2,2,0,0,1-2,2h-3" transform="translate(-64 -2)" fill="none" stroke="#000" stroke-linecap="round" stroke-linejoin="round" stroke-width="2"/>
        <path d="M113,214v-3a2,2,0,0,1,2-2h3" transform="translate(-64 -2)" fill="none" stroke="#000" stroke-linecap="round" stroke-linejoin="round" stroke-width="2"/>
        <path d="M105,214v-3a2,2,0,0,0-2-2h-3" transform="translate(-64 -2)" fill="none" stroke="#000" stroke-linecap="round" stroke-linejoin="round" stroke-width="2"/>
        <path d="M113,196v3a2,2,0,0,0,2,2h3" transform="translate(-64 -2)" fill="none" stroke="#000" stroke-linecap="round" stroke-linejoin="round" stroke-width="2"/>
      </g>
    </g>
    <g id="signal">
      <g>
        <path d="M66.5,174a9.5,9.5,0,1,1,9.5,9.5" transform="translate(-64 -2)" fill="none" stroke="#000" stroke-linecap="round" stroke-linejoin="round" stroke-width="2"/>
        <path d="M71.8,174a4.2,4.2,0,1,1,4.2,4.2" transform="translate(-64 -2)" fill="none" stroke="#000" stroke-linecap="round" stroke-linejoin="round" stroke-width="2"/>
      </g>
    </g>
    <g id="volume-mute">
      <polygon points="8 138 12 138 17 132 17 150 12 145 7 145 7 138 8 138" fill="none" stroke="#000" stroke-linecap="round" stroke-linejoin="round" stroke-width="2"/>
    </g>
    <g id="volume-down">
      <g>
        <polygon points="37.9 138 41.9 138 46.9 132 46.9 150 41.9 145 36.9 145 36.9 138 37.9 138" fill="none" stroke="#000" stroke-linecap="round" stroke-linejoin="round" stroke-width="2"/>
        <path d="M114.6,145.8a2.9,2.9,0,0,0,0-5.7" transform="translate(-64 -2)" fill="none" stroke="#000" stroke-linecap="round" stroke-linejoin="round" stroke-width="2"/>
      </g>
    </g>
    <g id="volume-up">
      <polygon points="68.9 138 72.9 138 77.9 132 77.9 150 72.9 145 67.9 145 67.9 138 68.9 138" fill="none" stroke="#000" stroke-linecap="round" stroke-linejoin="round" stroke-width="2"/>
      <path d="M145.3,150.8c3.7,0,6.8-3.5,6.8-7.8s-3-7.8-6.8-7.8" transform="translate(-64 -2)" fill="none" stroke="#000" stroke-linecap="round" stroke-linejoin="round" stroke-width="2"/>
      <path d="M145.5,145.8a2.9,2.9,0,0,0,0-5.7" transform="translate(-64 -2)" fill="none" stroke="#000" stroke-linecap="round" stroke-linejoin="round" stroke-width="2"/>
    </g>
    <g id="volume-off">
      <g>
        <line x1="101.9" y1="132" x2="119.9" y2="150" fill="none" stroke="#000" stroke-linecap="round" stroke-linejoin="round" stroke-width="2"/>
        <polyline points="108.9 134.5 111 132 111 150 106 145 101 145 101 138 102 138 106 138 106.8 137.1" fill="none" stroke="#000" stroke-linecap="round" stroke-linejoin="round" stroke-width="2"/>
        <path d="M184,147.2a8.7,8.7,0,0,0,1-4.2c0-4.3-3-7.8-6.8-7.8" transform="translate(-64 -2)" fill="none" stroke="#000" stroke-linecap="round" stroke-linejoin="round" stroke-width="2"/>
        <path d="M178.3,150.8a6,6,0,0,0,2.7-.7" transform="translate(-64 -2)" fill="none" stroke="#000" stroke-linecap="round" stroke-linejoin="round" stroke-width="2"/>
        <path d="M180.7,144.1a3.2,3.2,0,0,0,.2-1.1,2.7,2.7,0,0,0-2.5-2.8" transform="translate(-64 -2)" fill="none" stroke="#000" stroke-linecap="round" stroke-linejoin="round" stroke-width="2"/>
      </g>
    </g>
    <g id="bubble-circle">
      <path d="M71.6,118.4a9.5,9.5,0,1,0-4-4l-1.1,5.1Z" transform="translate(-64 -2)" fill="none" stroke="#000" stroke-linecap="round" stroke-linejoin="round" stroke-width="2"/>
    </g>
    <g id="bubble-square">
      <path d="M104.7,116.3h11.7a2.1,2.1,0,0,0,2.1-2.1V102.6a2.1,2.1,0,0,0-2.1-2.1H101.6a2.1,2.1,0,0,0-2.1,2.1v16.9Z" transform="translate(-64 -2)" fill="none" stroke="#000" stroke-linecap="round" stroke-linejoin="round" stroke-width="2"/>
    </g>
    <g id="support">
      <g>
        <circle cx="76" cy="78" r="4" transform="translate(-96.9 74.6) rotate(-45)" fill="none" stroke="#000" stroke-linecap="round" stroke-linejoin="round" stroke-width="2"/>
        <circle cx="76" cy="78" r="10" transform="translate(-96.9 74.6) rotate(-45)" fill="none" stroke="#000" stroke-linecap="round" stroke-linejoin="round" stroke-width="2"/>
        <line x1="4.9" y1="68.9" x2="9.2" y2="73.2" fill="none" stroke="#000" stroke-linecap="round" stroke-linejoin="round" stroke-width="2"/>
        <line x1="14.8" y1="73.2" x2="19.1" y2="68.9" fill="none" stroke="#000" stroke-linecap="round" stroke-linejoin="round" stroke-width="2"/>
        <line x1="14.8" y1="78.8" x2="19.1" y2="83.1" fill="none" stroke="#000" stroke-linecap="round" stroke-linejoin="round" stroke-width="2"/>
        <line x1="9.2" y1="78.8" x2="4.9" y2="83.1" fill="none" stroke="#000" stroke-linecap="round" stroke-linejoin="round" stroke-width="2"/>
      </g>
    </g>
    <g id="grid">
      <g>
        <rect x="14" y="33.5" width="7.5" height="7.5" fill="none" stroke="#000" stroke-linecap="round" stroke-linejoin="round" stroke-width="2"/>
        <rect x="14" y="45" width="7.5" height="7.5" fill="none" stroke="#000" stroke-linecap="round" stroke-linejoin="round" stroke-width="2"/>
        <rect x="2.5" y="33.5" width="7.5" height="7.5" fill="none" stroke="#000" stroke-linecap="round" stroke-linejoin="round" stroke-width="2"/>
        <rect x="2.5" y="45" width="7.5" height="7.5" fill="none" stroke="#000" stroke-linecap="round" stroke-linejoin="round" stroke-width="2"/>
      </g>
    </g>
    <g id="browsers">
      <g>
        <rect x="3" y="5" width="14" height="14" rx="2" ry="2" fill="none" stroke="#000" stroke-linecap="round" stroke-linejoin="round" stroke-width="2"/>
        <path d="M72,3H83a2,2,0,0,1,2,2V16" transform="translate(-64 -2)" fill="none" stroke="#000" stroke-linecap="round" stroke-linejoin="round" stroke-width="2"/>
      </g>
    </g>
    <g id="folder">
      <path d="M66,1088.8v-13.6a2.3,2.3,0,0,1,2.3-2.3h5.3a1.1,1.1,0,0,1,.8.4l2.8,3.2a1.1,1.1,0,0,0,.8.4h5.6a2.2,2.2,0,0,1,2.2,2.2v9.7a2.2,2.2,0,0,1-2.2,2.2H68.2A2.2,2.2,0,0,1,66,1088.8Z" transform="translate(-64 -2)" fill="none" stroke="#000" stroke-linecap="round" stroke-linejoin="round" stroke-width="2"/>
    </g>
    <g id="upload">
      <g>
        <path d="M100,1049.3v7a2,2,0,0,0,2,2h14a2,2,0,0,0,2-2v-7" transform="translate(-64 -2)" fill="none" stroke="#000" stroke-linecap="round" stroke-linejoin="round" stroke-width="2"/>
        <g>
          <polyline id="Right-16" data-name="Right" points="40.9 1041.7 45 1037.7 49.1 1041.7" fill="none" stroke="#000" stroke-linecap="round" stroke-linejoin="round" stroke-width="2"/>
          <line x1="45" y1="1051.3" x2="45" y2="1039.8" fill="none" stroke="#000" stroke-linecap="round" stroke-linejoin="round" stroke-width="2"/>
        </g>
      </g>
    </g>
    <g id="download">
      <g>
        <path d="M67,1049.3v7a2,2,0,0,0,2,2H83a2,2,0,0,0,2-2v-7" transform="translate(-64 -2)" fill="none" stroke="#000" stroke-linecap="round" stroke-linejoin="round" stroke-width="2"/>
        <g>
          <polyline id="Right-17" data-name="Right" points="7.9 1047.3 12 1051.3 16.1 1047.3" fill="none" stroke="#000" stroke-linecap="round" stroke-linejoin="round" stroke-width="2"/>
          <line x1="12" y1="1037.7" x2="12" y2="1049.2" fill="none" stroke="#000" stroke-linecap="round" stroke-linejoin="round" stroke-width="2"/>
        </g>
      </g>
    </g>
  </g>
  <g id="thumbs-down">
    <path d="M104.3,923.6l2.8,8.4a.6.6,0,0,0,.8.3l1-.5a2.6,2.6,0,0,0,1.4-2.3v-3.9h6.4a2,2,0,0,0,1.9-2.5l-2-8a2,2,0,0,0-1.9-1.5H101.3a2,2,0,0,0-2,2v6a2,2,0,0,0,2,2h3v-10" transform="translate(-64 -2)" fill="none" stroke="#000" stroke-linecap="round" stroke-linejoin="round" stroke-width="2"/>
  </g>
  <g id="thumbs-up">
    <path d="M71.3,922.4l2.8-8.4a.6.6,0,0,1,.8-.3l1,.5a2.6,2.6,0,0,1,1.4,2.3v3.9h6.4a2,2,0,0,1,1.9,2.5l-2,8a2,2,0,0,1-1.9,1.5H68.3a2,2,0,0,1-2-2v-6a2,2,0,0,1,2-2h3v10" transform="translate(-64 -2)" fill="none" stroke="#000" stroke-linecap="round" stroke-linejoin="round" stroke-width="2"/>
  </g>
</svg>
