<?xml version="1.0" encoding="utf-8"?>
<!-- Generator: Adobe Illustrator 21.1.0, SVG Export Plug-In . SVG Version: 6.00 Build 0)  -->
<svg version="1.1" xmlns="http://www.w3.org/2000/svg" xmlns:xlink="http://www.w3.org/1999/xlink" x="0px" y="0px"
	 viewBox="0 0 24 24" enable-background="new 0 0 24 24" xml:space="preserve">
<g id="_x2D_Guides">
	<g id="_x31_1pt" display="none">
	</g>
	<g id="_x31_4pt" display="none">
	</g>
	<g id="_x31_6pt">
	</g>
	<g id="_x31_8pt">
	</g>
	<g id="_x32_2pt">
	</g>
	<g id="Center">
	</g>
	<rect x="6.5" y="8.5" display="none" width="11" height="11"/>
</g>
<g id="_x2D_-Templates" display="none">
	<path id="_x2D_-File_1_" fill="none" stroke="#000000" stroke-width="2" stroke-miterlimit="10" d="M18,24H6c-1.1,0-2-0.9-2-2V6
		c0-1.1,0.9-2,2-2h7.1c0.6,0,1.1,0.2,1.5,0.6l4.9,5.2c0.4,0.4,0.5,0.9,0.5,1.4V22C20,23.1,19.1,24,18,24z"/>
	<path id="_x2D_-Rectangle" fill="none" stroke="#000000" stroke-width="2" stroke-miterlimit="10" d="M19,23H5c-1.1,0-2-0.9-2-2V7
		c0-1.1,0.9-2,2-2h14c1.1,0,2,0.9,2,2v14C21,22.1,20.1,23,19,23z"/>
	<circle id="_x2D_-Circle" fill="none" stroke="#000000" stroke-width="2" stroke-miterlimit="10" cx="12" cy="14" r="9"/>
	<path id="_x2D_-Triangle" fill="none" stroke="#000000" stroke-width="2" stroke-miterlimit="10" d="M10.3,6.1l-6.9,14
		C2.7,21.4,3.6,23,5.1,23H19c1.5,0,2.5-1.6,1.8-2.9l-6.9-14C13.1,4.7,11,4.7,10.3,6.1z"/>
</g>
<g id="Complete">
	<g id="F-File">
		<g id="Remove">
		</g>
		<g id="Add">
		</g>
		<g id="Text">
		</g>
	</g>
	<g id="F-Chevron">
		
			<polyline id="Up" fill="none" stroke="#000000" stroke-width="2" stroke-linecap="round" stroke-linejoin="round" stroke-miterlimit="10" points="
			5,15.5 12,8.5 19,15.5 		"/>
	</g>
	<g id="F-Push">
		<g id="Left_1_">
		</g>
		<g id="Right_1_">
		</g>
		<g id="Down_4_">
		</g>
		<g id="Up_1_">
		</g>
	</g>
	<g id="Code">
	</g>
	<g id="Triangle_1_">
	</g>
	<g id="Circle">
	</g>
	<g id="Clock">
	</g>
	<g id="Disc">
	</g>
	<g id="DashedRectangle">
	</g>
	<g id="Lapse">
	</g>
	<g id="Square">
	</g>
	<g id="F-More">
	</g>
	<g id="more-horizontal">
	</g>
	<g id="alert-square">
	</g>
	<g id="alert-triangle">
	</g>
	<g id="alert-circle">
	</g>
	<g id="info-square">
	</g>
	<g id="info-circle">
	</g>
	<g id="x-circle">
	</g>
	<g id="x-square">
	</g>
	<g id="add-square">
	</g>
	<g id="add-circle">
	</g>
	<g id="remove-square">
	</g>
	<g id="remove-circle">
	</g>
	<g id="arrow-down-right">
	</g>
	<g id="arrow-down-left">
	</g>
	<g id="arrow-up-left">
	</g>
	<g id="arrow-up-right">
	</g>
	<g id="arrow-left">
	</g>
	<g id="arrow-right">
	</g>
	<g id="arrow-down">
	</g>
	<g id="arrow-up">
	</g>
	<g id="search">
	</g>
	<g id="zoom-in">
	</g>
	<g id="zoom-out">
	</g>
	<g id="user">
	</g>
	<g id="user-add">
	</g>
	<g id="user-remove">
	</g>
	<g id="user-x">
	</g>
	<g id="user-tick">
	</g>
	<g id="sidebar-bottom">
	</g>
	<g id="sidebar-top">
	</g>
	<g id="sidebar-left">
	</g>
	<g id="sidebar-right">
	</g>
	<g id="tick">
	</g>
	<g id="x">
	</g>
	<g id="add">
	</g>
	<g id="minus">
	</g>
	<g id="lock">
	</g>
	<g id="unlock">
	</g>
	<g id="mail">
	</g>
	<g id="mail-read">
	</g>
	<g id="align-justify">
	</g>
	<g id="align-center">
	</g>
	<g id="align-left">
	</g>
	<g id="align-right">
	</g>
	<g id="navigation-nw">
	</g>
	<g id="navigation-ne">
	</g>
	<g id="navigation">
	</g>
	<g id="maximize">
	</g>
	<g id="minimize">
	</g>
	<g id="signal">
	</g>
	<g id="volume-mute">
	</g>
	<g id="volume-down">
	</g>
	<g id="volume-off">
	</g>
	<g id="bubble-circle">
	</g>
	<g id="bubble-square">
	</g>
	<g id="support">
	</g>
	<g id="grid">
	</g>
	<g id="browsers">
	</g>
	<g id="folder">
	</g>
	<g id="upload">
	</g>
	<g id="download">
	</g>
</g>
<g id="Active">
</g>
<g id="Layer_88">
</g>
</svg>
