<svg xmlns="http://www.w3.org/2000/svg" width="24" height="24" viewBox="0 0 24 24">
  <title>i</title>
  <g id="Complete">
    <g id="volume-off">
      <g>
        <line x1="2.9" y1="3" x2="20.9" y2="21" fill="none" stroke="#000" stroke-linecap="round" stroke-linejoin="round" stroke-width="2"/>
        <polyline points="9.9 5.5 12 3 12 21 7 16 2 16 2 9 3 9 7 9 7.8 8.1" fill="none" stroke="#000" stroke-linecap="round" stroke-linejoin="round" stroke-width="2"/>
        <path d="M21,16.2a8.7,8.7,0,0,0,1-4.2c0-4.3-3-7.8-6.8-7.8" fill="none" stroke="#000" stroke-linecap="round" stroke-linejoin="round" stroke-width="2"/>
        <path d="M15.3,19.8a6,6,0,0,0,2.7-.7" fill="none" stroke="#000" stroke-linecap="round" stroke-linejoin="round" stroke-width="2"/>
        <path d="M17.7,13.1a3.2,3.2,0,0,0,.2-1.1,2.7,2.7,0,0,0-2.5-2.8" fill="none" stroke="#000" stroke-linecap="round" stroke-linejoin="round" stroke-width="2"/>
      </g>
    </g>
  </g>
</svg>
