<svg xmlns="http://www.w3.org/2000/svg" width="24" height="24" viewBox="0 0 24 24">
  <title>i</title>
  <g id="Complete">
    <g id="volume-off">
      <g>
        <line x1="3" y1="3" x2="21" y2="21" fill="none" stroke="#000" stroke-linecap="round" stroke-linejoin="round" stroke-width="2"/>
        <polyline points="9.9 5.5 12 3 12 21 7 16 2 16 2 9 3 9 7 9 8 9" fill="none" stroke="#000" stroke-linecap="round" stroke-linejoin="round" stroke-width="2"/>
        <path d="M21.4,16a8.5,8.5,0,0,0,1.1-4.2c0-4.3-3.1-7.8-7-7.8" fill="none" stroke="#000" stroke-linecap="round" stroke-linejoin="round" stroke-width="2"/>
        <path d="M15.5,20.5a5.2,5.2,0,0,0,3-1" fill="none" stroke="#000" stroke-linecap="round" stroke-linejoin="round" stroke-width="2"/>
        <path d="M18.3,13a2.7,2.7,0,0,0,.2-1.1,2.9,2.9,0,0,0-3-2.9" fill="none" stroke="#000" stroke-linecap="round" stroke-linejoin="round" stroke-width="2"/>
      </g>
    </g>
  </g>
</svg>
